<svg width="13" height="13" viewBox="0 0 13 13" fill="none" xmlns="http://www.w3.org/2000/svg">
<path fill-rule="evenodd" clip-rule="evenodd" d="M12.6689 0.331097C13.1104 0.772559 13.1104 1.48831 12.6689 1.92977L1.92977 12.6689C1.48831 13.1104 0.772559 13.1104 0.331097 12.6689C-0.110366 12.2274 -0.110366 11.5117 0.331097 11.0702L11.0702 0.331097C11.5117 -0.110366 12.2274 -0.110366 12.6689 0.331097Z" fill="#DE4A4C"/>
<path fill-rule="evenodd" clip-rule="evenodd" d="M12.6689 12.6689C12.2274 13.1104 11.5117 13.1104 11.0702 12.6689L0.331098 1.92977C-0.110366 1.48831 -0.110366 0.772558 0.331098 0.331096C0.772559 -0.110366 1.48831 -0.110366 1.92977 0.331096L12.6689 11.0702C13.1104 11.5117 13.1104 12.2274 12.6689 12.6689Z" fill="#DE4A4C"/>
</svg>
