<svg width="17" height="15" viewBox="0 0 17 15" fill="none" xmlns="http://www.w3.org/2000/svg">
<path d="M4.04822 6.04293C4.04822 5.37138 4.49456 4.78167 5.14087 4.5993L8.3677 3.68879C8.63406 3.61363 8.91603 3.61363 9.1824 3.68879L12.4092 4.5993C13.0555 4.78167 13.5019 5.37138 13.5019 6.04293V12.8531C13.5019 13.6816 12.8303 14.3531 12.0019 14.3531H5.54822C4.71979 14.3531 4.04822 13.6816 4.04822 12.8531V6.04293Z" fill="#F2F2F2" stroke="black"/>
<path fill-rule="evenodd" clip-rule="evenodd" d="M7.24129 1.41842C7.96425 0.860525 9.03565 0.860525 9.75861 1.41842L15.4511 5.81128C16.026 6.25494 16.0896 7.03105 15.5931 7.54477C15.0965 8.05849 14.228 8.11528 13.653 7.67161L8.49995 3.69503L3.34687 7.67161C2.77195 8.11528 1.90336 8.05849 1.40683 7.54477C0.910308 7.03105 0.973863 6.25494 1.54879 5.81128L7.24129 1.41842Z" fill="#EC4444" stroke="black" stroke-linecap="round"/>
<rect x="7.89954" y="10.9286" width="2.85135" height="3.42455" rx="0.5" stroke="black"/>
</svg>
